<?xml version="1.0" encoding="utf-8"?>
<!-- Generator: Adobe Illustrator 25.2.1, SVG Export Plug-In . SVG Version: 6.00 Build 0)  -->
<svg version="1.1" id="Layer_1" xmlns="http://www.w3.org/2000/svg" xmlns:xlink="http://www.w3.org/1999/xlink" x="0px" y="0px"
	 viewBox="0 0 563 501.1" style="enable-background:new 0 0 563 501.1;" xml:space="preserve">
<style type="text/css">
	.st0{fill:#013A44;}
	.st1{fill:#4B8047;}
	.st2{fill:#225087;}
	.st3{fill:#F1564A;}
	.st4{fill:#D9D9D9;}
	.st5{fill:#19A1A1;}
	.st6{fill:#231F20;}
	.st7{fill:#9BC792;}
	.st8{fill:#4C7F3E;}
	.st9{fill:#2775BB;}
	.st10{fill:none;}
	.st11{fill:#80C88E;}
	.st12{fill:#24282A;}
	.st13{fill:#80C88D;}
	.st14{fill:#A8D04B;}
	.st15{fill:#F99F44;}
	.st16{fill:#AA57A2;}
	.st17{fill:#24272A;}
	.st18{fill-rule:evenodd;clip-rule:evenodd;fill:#FFEA00;}
	.st19{fill:#462DE0;}
	.st20{fill:#0B3C84;}
	.st21{fill:#005CD6;}
	.st22{fill:#FEFEFE;}
	.st23{fill:#4085DF;}
	.st24{fill:#9BEBE4;}
	.st25{fill:#A1F5E3;}
	.st26{fill:#4A9BDD;}
	.st27{fill:#4084DF;}
	.st28{fill:#005CD5;}
	.st29{fill:#1D9BCF;}
	.st30{fill:#23A7CE;}
	.st31{fill:#26AECE;}
	.st32{fill:#1A95D0;}
	.st33{fill:#20A2CF;}
	.st34{fill:#0F7DD2;}
	.st35{fill:#35CDCB;}
	.st36{fill:#39D7CA;}
	.st37{fill:#0D78D3;}
	.st38{fill:#188FD0;}
	.st39{fill:#1283D2;}
	.st40{fill:#0A72D3;}
	.st41{fill:#1487D1;}
	.st42{fill:#1F9FCF;}
	.st43{fill:#0261D5;}
	.st44{fill:#37D2CA;}
	.st45{fill:#28B3CD;}
	.st46{fill:#086DD3;}
	.st47{fill:#0669D4;}
	.st48{fill:#168BD1;}
	.st49{fill:#30C2CC;}
	.st50{fill:#0464D4;}
	.st51{fill:#2AB6CD;}
	.st52{fill:#2CBACD;}
	.st53{fill:#32C7CB;}
	.st54{fill:#2EBECC;}
	.st55{fill:#2EBFCC;}
	.st56{fill:#107ED2;}
	.st57{fill:#1385D1;}
	.st58{fill:#0B73D3;}
	.st59{fill:#20A0CF;}
	.st60{fill:#0D78D2;}
	.st61{fill:#1282D2;}
	.st62{fill:#1D9ACF;}
	.st63{fill:#1B96D0;}
	.st64{fill:#096ED3;}
	.st65{fill:#1991D0;}
	.st66{fill:#0362D5;}
	.st67{fill:#0465D4;}
	.st68{fill:#28B1CD;}
	.st69{fill:#25ABCE;}
	.st70{fill:#2AB7CD;}
	.st71{fill:#2CBBCC;}
	.st72{fill:#1E9DCF;}
	.st73{fill:#2EC0CC;}
	.st74{fill:#34CDCB;}
	.st75{fill:#30C3CC;}
	.st76{fill:#42EBC8;}
	.st77{fill:#0E79D2;}
	.st78{fill:#0C75D3;}
	.st79{fill:#0B70D4;}
	.st80{fill:#39D6CA;}
	.st81{fill:#36D1CA;}
	.st82{fill:#0B74D3;}
	.st83{fill:#43ECC8;}
	.st84{fill:#1180D2;}
	.st85{fill:#1486D1;}
	.st86{fill:#0F7BD2;}
	.st87{fill:#1386D1;}
	.st88{fill:#168AD1;}
	.st89{fill:#40E5C9;}
	.st90{fill:#3DE0C9;}
	.st91{fill:#168CD1;}
	.st92{fill:#1890D0;}
	.st93{fill:#1A94D0;}
	.st94{fill:#0362D4;}
	.st95{fill:#41E7C8;}
	.st96{fill:#0566D4;}
	.st97{fill:#1E9CCF;}
	.st98{fill:#27B1CD;}
	.st99{fill:#23A8CE;}
	.st100{fill:#25ACCE;}
	.st101{fill:#1A93D0;}
	.st102{fill:#1B97D0;}
	.st103{fill:#0D77D3;}
	.st104{fill:#21A3CF;}
	.st105{fill:#2FC2CC;}
	.st106{fill:#1589D1;}
	.st107{fill:#2DBDCC;}
	.st108{fill:#34CCCB;}
	.st109{fill:#37D1CA;}
	.st110{fill:#3CDEC9;}
	.st111{fill:#31C6CB;}
	.st112{fill:#3AD8CA;}
	.st113{fill:#27B0CD;}
	.st114{fill:#3BDCC9;}
	.st115{fill:#24AACE;}
	.st116{fill:#22A5CE;}
	.st117{fill:#1D99D0;}
	.st118{fill:#20A1CF;}
	.st119{fill:#1F9CD0;}
	.st120{fill:#3FE3C9;}
	.st121{fill:#086ED3;}
	.st122{fill:#2DBBCC;}
	.st123{fill:#38D3CA;}
	.st124{fill:#29B5CD;}
	.st125{fill:#26ADCE;}
	.st126{fill:#24A8CE;}
	.st127{fill:#37D3CA;}
	.st128{fill:#1C95D0;}
	.st129{fill:#2FC1CC;}
	.st130{fill:#36CFCB;}
	.st131{fill:#33C9CB;}
	.st132{fill:#2BB7CD;}
	.st133{fill:#2DBCCC;}
	.st134{fill:#23A6CE;}
	.st135{fill:#35C9CC;}
	.st136{fill:#E3262D;}
	.st137{fill:none;stroke:#FFFFFF;stroke-width:1.4384;stroke-miterlimit:10;}
	.st138{fill:none;stroke:#FFFFFF;stroke-width:1.445;stroke-miterlimit:10;}
	.st139{fill:#FFFFFF;stroke:#FFFFFF;stroke-width:1.4384;stroke-miterlimit:10;}
	.st140{fill:#FFFFFF;}
	.st141{fill:#FFFFFF;stroke:#FFFFFF;stroke-width:1.445;stroke-miterlimit:10;}
</style>
<rect class="st140" width="100%" height="100%" rx="100" ry="100"/>
<path class="st20" d="M17,159c-9.5-5.6-20.3-29.3-9.7-36.8c4.2-2.5,6.6-1.2,9.5,0.2c29,14.9,57.7,30.4,86.4,45.7
	c52.5,27.9,105.3,55.5,157.5,84c16.1,8.8,29.9,8.3,45.9-0.4c77.7-42,155.8-83.2,233.9-124.4c6-3.2,8.9-5.4,15.9-3.4
	c6.5,7,1.5,31.3-5.1,35.2c-9.1,5.5-16.6,7.7-26,12.7c-16,8.6-32,17.2-48,25.9c-29.1,15-25.2,13.1-36.8,19.7
	c-21,11.7-39.5,21-61.6,34.1c-13.5,7.9-18.1,8.8-32.5,17.9c-11.6,6.9-11.5,20.9-9,32.7c-14,7.7-28.1,15.5-42.1,23.2
	c-7.6,4.2-15,4.8-22.9,0.4c-14.5-8.2-29.3-16-43.9-24c-0.6-12.2,2-28.7-11.9-34.4"/>
<path class="st20" d="M350.7,372.4c-13.4,6.1-14.7,21.6-13.6,34.8c-0.6,0.3-1.1,0.5-1.7,0.8c-53.3,29-53.3,29-106.6-1.1
	c-0.5-11.3,0.2-27.1-13.1-34.2c-9.8-6-24.3-13.4-33.9-19.5c-20.6-12.5-29.8-18.6-51.3-30.3c-4.2-2.7-12.9-6.9-18.2-9.7
	c-9.7-5.1-9.7-5.1-19.7-10.6c-24.3-12.9-49.3-25.3-73.7-37.9c-11.6-6.2-19-26.7-13.2-38.4c2.7-5.7,8.6-0.8,11.9,1
	c45,23.5,89.8,47.5,134.6,71.3c37.1,19.7,74.3,39.2,111.2,59.2c14,7.6,27,7.1,40.9-0.4c80.7-43.2,161.6-85.8,242.2-129.2
	c11.5-6.2,14.3-5.2,14.8,8.3c0.6,15.1-3.7,24.1-18.1,30.7c-22.7,10.5-44.2,23.5-66.2,35.4"/>
<path class="st20" d="M485.5,103.7C423,70.5,360.4,37.6,298.1,4.1c-11.3-6.1-20.6-5-31.5,0.9C205.9,37.7,145,69.8,84.2,102.2
	c-4.3,2.3-8.1,3.3-8.8,8.7c-0.9,7.1,3.9,8.6,8.3,11c61.8,33.2,123.9,65.1,185.8,98.1c4.4,2.4,8.9,4.6,16.7,4.1
	c1.8-0.7,6-1.9,9.8-3.9C359.7,186.4,423.2,152.4,487,119C501.6,111.4,493.4,107.9,485.5,103.7z M392.8,117.4
	c-34.2,18.2-68.5,36.4-102.8,54.5c0,0,0,0-0.1,0c-3.9,2-8.5,2-12.6,0.2c-1.6-0.7-3.2-1.4-4.7-2.2c-31.5-16.6-63-33.3-94.5-50
	c-3.7-2-8.5-2.7-8.6-7.8c-0.1-5.2,4.8-6.3,8.4-8.3c30.8-16.6,61.8-33,92.6-49.6c7.6-4.1,14.6-5.6,22.9-1
	c32.4,17.7,65,34.8,97.6,52.1C397.6,108.6,403,112,392.8,117.4z"/>
<path class="st20" d="M307.2,456.5c125.7-63.9,207.5-108.9,232.5-123.5c6.8-4,14.5-9.1,17.4-5.1c6.9,9.6-1.1,32-6.6,35.9
	c-4.6,3.2-6.4,3.5-11.4,6.2c-78.6,41.8-157.2,83.5-235.7,125.5c-14,7.5-26.9,7.7-41,0.2C181.2,452.1,106,412,24.4,369.2
	C13.2,363.3,6.9,358,3.8,345.3c-5.2-21.1,1-23.2,16.7-14.9c79.2,41.9,158.6,83.6,237.4,126.3c3.8,2.2,12.5,6.6,24.4,6.6
	C294.5,463.3,303.4,458.7,307.2,456.5z"/>
</svg>
